<?xml version="1.0" encoding="iso-8859-1"?>
<!-- Generator: Adobe Illustrator 18.0.0, SVG Export Plug-In . SVG Version: 6.00 Build 0)  -->
<!DOCTYPE svg PUBLIC "-//W3C//DTD SVG 1.1//EN" "http://www.w3.org/Graphics/SVG/1.1/DTD/svg11.dtd">
<svg version="1.1" id="Capa_1" xmlns="http://www.w3.org/2000/svg" xmlns:xlink="http://www.w3.org/1999/xlink" x="0px" y="0px"
	 viewBox="0 0 320 320" style="enable-background:new 0 0 320 320;" xml:space="preserve">
<path d="M245.981,185.099h-31.46c18.037-15.462,29.524-38.728,24.916-65.247c-3.868-22.255-19.585-39.51-33.451-54.733
	c-21.427-23.525-27.699-33.001-13.963-46.95c2.55-2.589,3.494-6.357,2.468-9.843c-1.027-3.485-3.863-6.14-7.409-6.933
	C182.951,0.469,178.802,0,174.748,0c-14.298,0-27.117,5.764-36.098,16.229c-8.021,9.348-12.501,21.969-13.154,36.558
	c-3.894-1.028-7.99-1.561-12.192-1.561c-15.05,0-27.606,6.764-32.77,17.652c-2.192,4.625-0.539,10.16,3.833,12.824
	c10.731,6.538,10.53,12.883,8.277,31.952c-1.06,8.964-2.378,20.121-1.706,32.908c0.948,18.034,7.724,30.201,16.155,38.535H74.021
	c-19.972,0-36.221,16.581-36.221,36.961V310c0,5.522,4.478,10,10,10h224.4c5.522,0,10-4.478,10-10v-87.94
	C282.2,201.68,265.952,185.099,245.981,185.099z M262.2,222.06v20.013h-36.1v-36.974h19.881
	C254.925,205.099,262.2,212.707,262.2,222.06z M113.902,242.072v-36.974h92.198v36.974H113.902z M113.304,71.227
	c6.328,0,12.331,2.128,16.47,5.837c3.146,2.82,7.724,3.356,11.437,1.348c3.714-2.012,5.764-6.139,5.122-10.313
	c-2.531-16.465,0.132-30.261,7.497-38.845c3.438-4.007,7.771-6.764,12.77-8.17c-2.796,7.859-2.592,16.033,0.63,24.452
	c4.44,11.606,13.928,22.022,23.972,33.05c12.616,13.852,25.662,28.174,28.532,44.69c3.129,18.008-4.355,34.007-16.496,45.197
	c1.3-3.949,2.259-8.043,2.673-12.146c1.015-10.058-1.471-19.017-7.189-25.91c-2.244-2.704-5.734-4.029-9.213-3.5
	c-2.179,0.335-4.147,1.371-5.64,2.9c0.63-3.837,0.897-7.907,0.591-12.077c-1.021-13.895-8.209-25.759-20.786-34.311
	c-2.991-2.033-6.849-2.294-10.085-0.68c-3.237,1.614-5.351,4.851-5.526,8.464c-0.344,7.069-5.374,14.126-11.199,22.296
	c-9.916,13.907-22.604,31.699-15.129,57.845c-5.754-5.569-10.182-13.679-10.821-25.84c-0.582-11.084,0.574-20.874,1.595-29.512
	c1.791-15.156,3.631-30.734-7.747-43.303C107.235,71.769,110.204,71.227,113.304,71.227z M153.146,125.119
	c3.26-4.571,6.57-9.214,9.243-14.174c0.813,1.724,1.398,3.538,1.76,5.452c2.102,11.146-4.083,23.256-6.03,26.191
	c-1.634,2.13-2.357,4.852-1.956,7.555c0.487,3.277,2.566,6.101,5.551,7.539c3.528,1.7,7.297,2.562,11.203,2.562
	c4.463-0.001,8.783-1.116,12.69-3.155c-2.162,11.087-10.375,23.656-13.992,28.01h-21.169
	C130.972,156.246,140.791,142.446,153.146,125.119z M74.021,205.099h19.882v36.974H57.8V222.06
	C57.8,212.707,65.076,205.099,74.021,205.099z M57.8,262.072h92.201V300H57.8V262.072z M170.001,300v-37.928H262.2V300H170.001z"/>
<g>
</g>
<g>
</g>
<g>
</g>
<g>
</g>
<g>
</g>
<g>
</g>
<g>
</g>
<g>
</g>
<g>
</g>
<g>
</g>
<g>
</g>
<g>
</g>
<g>
</g>
<g>
</g>
<g>
</g>
</svg>
