<?xml version="1.0" encoding="iso-8859-1"?>
<!-- Generator: Adobe Illustrator 18.0.0, SVG Export Plug-In . SVG Version: 6.00 Build 0)  -->
<!DOCTYPE svg PUBLIC "-//W3C//DTD SVG 1.1//EN" "http://www.w3.org/Graphics/SVG/1.1/DTD/svg11.dtd">
<svg version="1.1" id="Capa_1" xmlns="http://www.w3.org/2000/svg" xmlns:xlink="http://www.w3.org/1999/xlink" x="0px" y="0px"
	 viewBox="0 0 317.855 317.855" style="enable-background:new 0 0 317.855 317.855;" xml:space="preserve">
<path d="M297.36,49.256c-0.778-0.076-78.454-8.049-132.555-47.347c-3.504-2.544-8.249-2.547-11.753-0.001
	C98.938,41.207,21.272,49.18,20.5,49.255c-5.127,0.495-9.039,4.804-9.039,9.954c0,2.149,0.2,53.297,17.614,110.713
	c10.323,34.04,24.598,63.165,42.426,86.566c22.645,29.723,51.033,50.21,84.377,60.891c0.992,0.317,2.021,0.477,3.051,0.477
	s2.059-0.159,3.051-0.477c33.344-10.681,61.732-31.168,84.376-60.891c17.828-23.401,32.102-52.526,42.426-86.566
	c17.413-57.416,17.613-108.563,17.613-110.713C306.395,54.063,302.483,49.756,297.36,49.256z M272.626,153.682
	c-0.109,0.1-0.222,0.191-0.328,0.296L138.03,288.247c-8.891-4.709-17.267-10.336-25.12-16.876L283.03,101.248
	C281.014,116.433,277.785,134.573,272.626,153.682z M56.254,187.46L199.678,44.036c10.485,4.47,20.883,8.174,30.756,11.243
	L69.395,216.317C64.618,207.356,60.237,197.734,56.254,187.46z M158.928,22.198c6.981,4.697,14.216,8.93,21.544,12.759
	L48.953,166.476c-0.198-0.637-0.405-1.261-0.6-1.903c-3.282-10.769-5.922-21.361-8.052-31.441l99.411-99.41
	C146.242,30.221,152.687,26.396,158.928,22.198z M91.002,54.146l-55.036,55.036c-2.701-17.827-3.785-32.473-4.218-41.2
	C43.717,66.236,65.853,62.261,91.002,54.146z M79.938,234.059L252.588,61.41c14.08,3.432,25.88,5.458,33.526,6.573
	c-0.031,0.633-0.067,1.307-0.105,2.002L98.387,257.608C91.791,250.523,85.64,242.67,79.938,234.059z M158.929,297.319
	c-0.416-0.143-0.823-0.303-1.237-0.449l100.136-100.136C235.629,248.576,202.473,282.344,158.929,297.319z"/>
<g>
</g>
<g>
</g>
<g>
</g>
<g>
</g>
<g>
</g>
<g>
</g>
<g>
</g>
<g>
</g>
<g>
</g>
<g>
</g>
<g>
</g>
<g>
</g>
<g>
</g>
<g>
</g>
<g>
</g>
</svg>
