<?xml version="1.0" encoding="iso-8859-1"?>
<!-- Generator: Adobe Illustrator 18.0.0, SVG Export Plug-In . SVG Version: 6.00 Build 0)  -->
<!DOCTYPE svg PUBLIC "-//W3C//DTD SVG 1.1//EN" "http://www.w3.org/Graphics/SVG/1.1/DTD/svg11.dtd">
<svg version="1.1" id="Capa_1" xmlns="http://www.w3.org/2000/svg" xmlns:xlink="http://www.w3.org/1999/xlink" x="0px" y="0px"
	 viewBox="0 0 317.855 317.855" style="enable-background:new 0 0 317.855 317.855;" xml:space="preserve">
<path d="M297.36,49.256c-0.778-0.076-78.454-8.049-132.555-47.347c-0.054-0.039-0.11-0.072-0.165-0.11
	c-0.095-0.067-0.193-0.13-0.291-0.194c-0.153-0.099-0.309-0.193-0.466-0.283c-0.106-0.061-0.212-0.121-0.32-0.178
	c-0.166-0.087-0.335-0.166-0.505-0.243c-0.102-0.047-0.202-0.097-0.306-0.14c-0.261-0.108-0.525-0.205-0.793-0.29
	c-0.102-0.032-0.206-0.057-0.31-0.086c-0.187-0.053-0.374-0.103-0.562-0.145c-0.117-0.026-0.234-0.047-0.352-0.069
	c-0.194-0.036-0.389-0.065-0.585-0.089c-0.104-0.013-0.208-0.027-0.313-0.036C159.536,0.018,159.232,0,158.928,0c0,0,0,0-0.001,0
	c-0.002,0-0.003,0-0.005,0c-0.303,0-0.606,0.018-0.908,0.046c-0.103,0.009-0.204,0.023-0.306,0.036
	c-0.199,0.024-0.398,0.055-0.596,0.091c-0.114,0.021-0.228,0.042-0.34,0.067c-0.196,0.043-0.39,0.095-0.584,0.15
	c-0.096,0.027-0.195,0.05-0.29,0.081c-0.269,0.085-0.535,0.183-0.797,0.292c-0.104,0.043-0.203,0.093-0.305,0.139
	c-0.169,0.077-0.337,0.155-0.503,0.242c-0.112,0.058-0.22,0.121-0.329,0.183c-0.151,0.086-0.3,0.177-0.447,0.272
	c-0.106,0.068-0.211,0.138-0.315,0.21c-0.05,0.035-0.101,0.065-0.151,0.1C98.938,41.207,21.272,49.18,20.5,49.255
	c-5.127,0.495-9.039,4.804-9.039,9.954c0,2.149,0.2,53.297,17.614,110.713c10.323,34.04,24.598,63.165,42.426,86.566
	c22.645,29.723,51.033,50.21,84.377,60.891c0.992,0.317,2.021,0.477,3.051,0.477s2.059-0.159,3.051-0.477
	c33.344-10.681,61.732-31.168,84.376-60.891c17.828-23.401,32.102-52.526,42.426-86.566
	c17.413-57.416,17.613-108.563,17.613-110.713C306.395,54.063,302.483,49.756,297.36,49.256z M273.88,148.928H168.928V28.515
	c44.725,26.641,96.354,36.43,117.186,39.469C285.397,82.603,282.858,113.821,273.88,148.928z M148.928,28.514v120.414H43.979
	c-8.956-35.047-11.507-66.311-12.231-80.945C52.581,64.942,104.2,55.153,148.928,28.514z M49.726,168.928h99.202v124.536
	C103.207,273.937,69.887,232.117,49.726,168.928z M168.928,293.465V168.928h99.204C247.975,232.121,214.657,273.938,168.928,293.465
	z"/>
<g>
</g>
<g>
</g>
<g>
</g>
<g>
</g>
<g>
</g>
<g>
</g>
<g>
</g>
<g>
</g>
<g>
</g>
<g>
</g>
<g>
</g>
<g>
</g>
<g>
</g>
<g>
</g>
<g>
</g>
</svg>
