<?xml version="1.0" encoding="iso-8859-1"?>
<!-- Generator: Adobe Illustrator 18.0.0, SVG Export Plug-In . SVG Version: 6.00 Build 0)  -->
<!DOCTYPE svg PUBLIC "-//W3C//DTD SVG 1.1//EN" "http://www.w3.org/Graphics/SVG/1.1/DTD/svg11.dtd">
<svg version="1.1" id="Capa_1" xmlns="http://www.w3.org/2000/svg" xmlns:xlink="http://www.w3.org/1999/xlink" x="0px" y="0px"
	 viewBox="0 0 321.006 321.006" style="enable-background:new 0 0 321.006 321.006;" xml:space="preserve">
<path d="M283.805,182.976c-1.229-2.282-3.299-3.998-5.77-4.785l-39.622-12.618c0.089-1.506,0.146-3.02,0.146-4.547
	c0-1.875-0.092-3.727-0.225-5.569l39.7-12.643c2.471-0.787,4.54-2.503,5.77-4.785l28.822-53.501
	c2.619-4.862,0.801-10.928-4.061-13.547c-4.861-2.617-10.927-0.802-13.547,4.061l-26.905,49.942l-33.859,10.783
	c-2.228-6.359-5.255-12.351-8.992-17.837l19.812-20.162c1.189-1.211,2.052-2.705,2.505-4.341l22.353-80.756
	c1.474-5.323-1.647-10.832-6.97-12.306c-5.325-1.472-10.832,1.646-12.306,6.97l-21.662,78.262l-17.065,17.367
	c-5.755-5.002-12.253-9.177-19.312-12.345l9.359-13.185c1.201-1.691,1.846-3.714,1.846-5.788V25.707c0-5.522-4.478-10-10-10
	s-10,4.478-10,10v42.75L172.34,84.634c-3.861-0.584-7.814-0.888-11.837-0.888s-7.976,0.304-11.837,0.888l-11.483-16.177v-42.75
	c0-5.522-4.478-10-10-10c-5.522,0-10,4.478-10,10v45.938c0,2.074,0.645,4.097,1.846,5.788l9.359,13.184
	c-7.059,3.168-13.558,7.343-19.313,12.344L92.011,85.596L70.348,7.335c-1.474-5.321-6.98-8.443-12.306-6.97
	c-5.322,1.474-8.443,6.982-6.97,12.306l22.353,80.756c0.453,1.636,1.315,3.13,2.505,4.341l19.809,20.16
	c-3.738,5.486-6.765,11.479-8.994,17.838l-33.855-10.781L25.986,75.042c-2.619-4.862-8.685-6.678-13.547-4.061
	C7.578,73.6,5.76,79.666,8.379,84.528l28.822,53.501c1.229,2.282,3.299,3.998,5.77,4.785l39.696,12.641
	c-0.133,1.842-0.225,3.695-0.225,5.571c0,1.528,0.057,3.042,0.146,4.549l-39.617,12.616c-2.471,0.787-4.54,2.503-5.77,4.785
	L8.379,236.477c-2.619,4.862-0.801,10.928,4.061,13.547c1.509,0.813,3.133,1.198,4.734,1.198c3.56,0,7.006-1.905,8.813-5.259
	l26.905-49.942l33.531-10.678c2.173,6.47,5.18,12.564,8.908,18.152l-19.4,19.743c-1.189,1.211-2.052,2.705-2.505,4.341
	l-22.353,80.756c-1.474,5.323,1.647,10.832,6.97,12.306c0.894,0.247,1.79,0.365,2.674,0.365c4.383,0,8.405-2.905,9.632-7.335
	l21.662-78.262l16.504-16.796c13.815,12.238,32.036,19.696,51.988,19.696c19.953,0,38.172-7.459,51.987-19.698l16.505,16.797
	l21.662,78.262c1.227,4.43,5.248,7.335,9.632,7.335c0.883,0,1.781-0.118,2.674-0.365c5.322-1.474,8.443-6.982,6.97-12.306
	l-22.353-80.756c-0.453-1.636-1.315-3.13-2.505-4.341l-19.402-19.746c3.727-5.588,6.734-11.681,8.906-18.151l33.535,10.68
	l26.905,49.942c1.807,3.354,5.253,5.259,8.813,5.259c1.602,0,3.226-0.386,4.734-1.198c4.861-2.619,6.68-8.685,4.061-13.547
	L283.805,182.976z M160.503,218.309c-32.016,0-58.062-25.697-58.062-57.283c0-31.584,26.046-57.28,58.062-57.28
	c32.013,0,58.057,25.696,58.057,57.28C218.559,192.612,192.515,218.309,160.503,218.309z"/>
<g>
</g>
<g>
</g>
<g>
</g>
<g>
</g>
<g>
</g>
<g>
</g>
<g>
</g>
<g>
</g>
<g>
</g>
<g>
</g>
<g>
</g>
<g>
</g>
<g>
</g>
<g>
</g>
<g>
</g>
</svg>
